<?xml version="1.0" encoding="UTF-8"?>
<svg id="a" data-name="Layer 1" xmlns="http://www.w3.org/2000/svg" viewBox="0 0 878.18 375.17">
  <defs>
    <style>
      .h {
        stroke-width: 4px;
      }

      .h, .i, .j, .k {
        fill: none;
        stroke: #cad2c5;
        stroke-linecap: round;
        stroke-linejoin: round;
      }

      .i {
        stroke-width: 3px;
      }

      .j {
        stroke-width: 5px;
      }

      .k {
        stroke-width: 2px;
      }
    </style>
  </defs>
  <path id="b" data-name="Ring 1" class="j" d="M90.67,88.35c18.99-6.77,42.14-19.08,60.95-27.35,10.02-4.87,14.64-6.21,24.9-8.86,15.77-3.67,34.67-9.73,50.5-12.46,16.16-1.24,36.71-.18,53.99-.52,12.51.17,19.33-.76,30.43-3.53,28.36-5.72,53.13-17.49,80.75-26.77,10.25-3.31,18.97-6.02,29.35-6.33,12.75-.22,26.26.82,38.87,3.29,16.83,4.26,35.66,12.3,52.42,17.01,8.95,2.63,18.49,3.22,27.78,3.29,13.42.22,25.88,2.18,38.41,6.08,34.32,13.69,61.11,3.79,95.79,5.57,10.46.81,21.78.69,31.81,3.34,11.73,3.79,23.97,9.48,34.74,15.16,11.19,6.84,19.05,20.17,27.73,29.94,6.98,8.56,13.15,16.41,20.24,25.53,9.22,11.78,16.1,23.09,26.33,33.36,12.51,12.83,27.76,23.73,37.89,38.5,4.38,6.59,9.47,14.37,12.96,21.75,6.3,14.55,9.66,32.51,9.12,48.06-1.97,22.47-20.05,29.53-40.26,34.24-9.76,2.76-18.86,4.97-28.91,4.7-10.62.04-30.17,0-41.97.02-8.86-.04-16.49.19-25.12,1.13-11.13,1.32-24.38,1.8-35.27,4.49-11.06,3.48-22.66,11.67-32.44,16.98-20.21,11.38-41.7,23.93-62.42,34.64-22.52,10.65-50.49,20.61-75.17,22.75-17.68.62-42.45.03-59.55.23-8.64.13-15.85-.3-24.19-1.63-23.03-3.29-47.1-7.38-69.96-13.12-13.75-3.41-24.06-4.77-34.66-9.94-15.2-8.04-11.81-27.99-12.06-42.46.04-9.56-.31-21.01-1.54-30.93-.92-11.52-9.33-19.23-20.46-21.98-10.44-3.48-21.48-.62-32.06-2.95-9.77-2.11-17.53-7.8-24.79-14.81-7.2-7.39-15.14-16.3-26.03-16.98-12.38-.68-25.84,3.74-37.71-1.05-12.88-5.41-17.8-20.18-29.54-27.22-9.35-5.87-20.98-7.49-31.82-8.74-18.69-2.43-39.92-5.05-59.19-8.06-16.4-3.21-34.47-6.3-49.89-11.36-18.64-6.64-24-24.4-10.81-39.75,5.96-7.6,16.19-12.48,25.28-16.55,17.5-7.77,37.4-11.64,55.29-16.62l.31-.1Z"/>
  <path id="c" data-name="Ring 2" class="h" d="M304.7,72.43c-7.9,1.04-15.55,3.6-22.95,6.38-13.22,4.84-30.48,10.66-45.2,15.7-9.33,3.2-17.49,6.35-26.81,10.25-9.55,4.27-21.23,8.39-28.76,16.06-8.47,9.17-3.38,18.99,8.71,22.92,10.14,3.4,21.13,4.03,31.57,6.29,13.95,2.55,27.08,8.24,40.04,14.22,11.92,5.95,26.32,8.67,38.32,14.93,9.51,5.14,16.73,12.89,25.87,18.51,7.6,4.85,15.88,7.72,23.12,13.18,12.72,9.41,22.14,23.38,37.52,28.82,3.72,1.49,7.54,2.86,11.41,3.91,9.88,2.8,20.36,2.57,28.65,6.84,26.18,13.29,7.73,47.2,41.67,67.14,13.45,8.76,30.09,9.38,45.67,11.05,19.57,1.73,39.93,1.16,59.3-3.97,13.16-3.71,22.82-11.56,34.81-17.56,14.56-7.32,29.3-14.26,43.46-21.34,11.85-6.18,27.14-9.42,40.82-11.58,13.55-2.35,26.71-4.88,40.37-7.27,11.12-1.96,21.86-3,34.78-4,13.91-1.06,27.71-2,39.27-7.96,19.26-9.02,34.54-29.31,19.95-49.69-7.34-10.37-17.53-18.47-25.39-28.26-7.09-8.45-12.78-16.34-17.12-26.77-3.98-9.02-6.13-18.72-9.64-27.93-6.3-17.57-26.28-23.24-40.56-32.46-7.64-4.7-16.68-9.8-24.75-12.75-8.72-3.24-19.48-4.31-29.32-4.41-18.47-.03-33.15-.05-49.87-2.22-10.28-1.23-20.98-3.04-31.26-4.61-17.76-2.89-37.7-3.04-56.11-4.09-46.58-1.23-94.03-.4-140.32-.46-23.36-.04-45.73,6.94-69.04,9.74-9.91,1.08-18.16-.02-27.78,1.31l-.42.06Z"/>
  <path id="d" data-name="Ring 3" class="i" d="M281.62,118.1c3.59,8.05,14.44,11.88,22.55,15.65,14.15,5.81,26.28,12.49,37.68,23.15,16.31,15.15,30.75,35.82,53.18,42.14,8.27,2.08,17.12,1.55,25.49,3.12,12.57,1.66,21.47,10.72,28.84,20.22,4.88,6.11,11.22,12.1,18.4,18.39,5.12,4.54,10.22,9.04,15.14,13.72,7.48,6.8,14.16,15.38,22.88,21.04,13.13,8.5,28.34,8.08,43.35,8.4,20.16.46,39.04-3.3,58.58-7.4,10.36-2.36,21.9-4.4,31.84-8.09,22.7-9.25,43.49-23,67.32-28.09,8.92-1.75,17.66-1.53,26.71-2.37,14.9-1.77,30.59-3.53,44.52-8.53,15.14-6.03,16.74-24.75,6.87-36.3-4.84-6.49-11.9-12-17.14-18.92-4.99-6.28-8.48-13.87-10.97-21.78-5.33-20.82-13.75-28.65-32.19-39.1-30.19-18.22-43.79-15.54-76.63-19.27-19.5-1.93-38.41-6.73-58.07-6.9-17.28-.08-34.52-.03-50.7-.05-68.96.72-134.82-1.37-192.52.8-9.23,1.16-18.07,4.11-27.22,6.05-13.34,3.3-42.36,5.01-38.02,23.84l.11.28Z"/>
  <path id="e" data-name="Ring 4" class="i" d="M431.88,115.66c26.12-1.38,56.66-3.21,82.23-3.96,26.71-.16,55.8-.06,82.73-.04,8.57.23,17.65.98,26.37,1.43,6.84.41,10.16.53,16.58,2.1,5.99,1.34,16.38,3.66,21.97,4.91,10.86,2.22,23.3,6.59,33.78,7.88,5.47.96,16.26,1.61,18.32,7.38.53,2.76-3.2,5.36-5.01,9.46-3.23,5.79-.7,12.41,4.24,16.33,17.04,15.51,38.32,26.4,16.52,48.99-4.42,6.36-12.15,7.31-19.42,9.47-8.38,2.07-17.22,5.58-25.36,6.56-12.63.88-64.43,4.71-87.57,6.36-3.58.32-6.47.37-10.01.37-6.38-.23-14.84.52-21.04-.54-12.45-4.19-28.05-12.07-39.64-16.35-10.23-3.88-21.31-6.48-30.98-11.61-21.65-10.72-39.9-20.61-59.09-28.43-15.44-6.75-31.62-12.36-45.09-22.22-9.13-7.09-3.23-20.24,3.02-27.39,3.19-4.06,8.04-5.71,12.84-7.31,7.41-3.2,17.04-3.54,24.3-3.37h.33Z"/>
  <path id="f" data-name="Ring 5" class="k" d="M542.05,129.48c-15.45,1.93-35.49,15.98-25.06,33.1,4.76,7.19,16.71,13.58,23.73,18.67,9.86,6.24,19.7,13.67,30.77,17.48,23.29,6.74,47.58,7.05,71.87,7.31,8.75-.21,19.04.59,27.71-.77,8.41-1.92,17.47-5.33,23.39-12.15,4.43-5.2,3.73-12.99,1.89-19.57-3.17-8.53-10.71-13.83-19.28-16.72-4.28-1.57-8.69-2.48-13.04-3.72-8.94-2.34-16.83-8.21-24.17-13.67-5.26-3.86-9.24-6.85-15.71-8.54-9.6-2.03-20.12-2.04-29.83-2.42-9.51-.08-21,1.51-31.33,1.09-6.81-.23-13.75-1.07-20.52-.13l-.42.05Z"/>
  <path id="g" data-name="Ring 6" class="k" d="M570.79,150.99c-6.72,1.85-11.23,10.06-4.54,14.58,9.41,5.51,19.91,7.87,30.6,9.77,10.94,2.41,21.04,3.29,32.31,4.5,8.81.94,16.97,2.45,25.29,1.04,2.7-.38,6.29-.35,7.93-2.66,3.43-7.66-7.48-10.96-13.42-13.24-8.25-3.1-17.78-8.5-25.83-10.46-3.6-.85-7.99-1.77-11.1-2.3-6.02-.91-12.28-1.04-18.46-1.56-9.31-.39-14.28-1.65-22.4.2l-.39.13Z"/>
</svg>