<?xml version="1.0" encoding="UTF-8"?>
<svg id="a" data-name="Layer 1" xmlns="http://www.w3.org/2000/svg" viewBox="0 0 168.48 117.46">
  <defs>
    <style>
      .b {
        fill: #cad2c5;
      }
    </style>
  </defs>
  <path class="b" d="M80.16,114.46c-1.7,0-3.35-.81-4.4-2.16L29.41,52.39v56.5c0,3.07-2.5,5.57-5.57,5.57h-15.27c-3.07,0-5.57-2.5-5.57-5.57V8.57c0-3.07,2.5-5.57,5.57-5.57h10.42c1.72,0,3.31.78,4.38,2.13l46.69,60.2V8.57c0-3.07,2.5-5.57,5.57-5.57h18.21c3.07,0,5.57,2.5,5.57,5.57v56.5L144.99,6.15c1.07-1.38,2.67-2.16,4.41-2.16,1.21,0,2.36.38,3.33,1.11l10.5,7.77c1.21.89,1.99,2.2,2.2,3.68.21,1.48-.16,2.95-1.06,4.14-3.52,4.69-12.47,16.21-16.78,21.74l-54.19,69.88c-1.07,1.37-2.67,2.15-4.4,2.15h-8.83Z"/>
  <path class="b" d="M93.84,6c1.42,0,2.57,1.15,2.57,2.57v57.76c0,1.57,1.28,2.57,2.59,2.57.73,0,1.47-.31,2.01-1L147.36,7.99c.51-.66,1.27-1,2.03-1,.53,0,1.07.17,1.53.51l10.51,7.78c1.15.85,1.39,2.46.53,3.6-4.24,5.65-16.18,20.97-18.87,24.44-16.01,20.65-46.83,60.39-52.07,67.15-.49.63-1.23.99-2.03.99h-8.83c-.79,0-1.54-.37-2.03-1L31.01,49.56c-.54-.69-1.28-1-2.01-1-1.31,0-2.59,1-2.59,2.57v57.76c0,1.42-1.15,2.57-2.57,2.57h-15.27c-1.42,0-2.57-1.15-2.57-2.57V8.57c0-1.42,1.15-2.57,2.57-2.57h10.42c.8,0,1.54.37,2.03.99l47.44,61.17c.54.69,1.28,1,2.01,1,1.31,0,2.59-1,2.59-2.57V8.57c0-1.42,1.15-2.57,2.57-2.57h18.21M93.84,0h-18.21c-4.73,0-8.57,3.84-8.57,8.57v47.99L25.76,3.31l-.02-.02-.02-.02c-1.64-2.08-4.1-3.27-6.74-3.27h-10.42C3.84,0,0,3.84,0,8.57v100.32c0,4.73,3.84,8.57,8.57,8.57h15.27c4.73,0,8.57-3.84,8.57-8.57v-47.72l40.97,52.96c1.62,2.09,4.15,3.33,6.78,3.33h8.83c2.67,0,5.13-1.21,6.77-3.31,2.31-2.99,9.59-12.37,18.38-23.7,11.15-14.38,24.74-31.91,33.7-43.46l2.2-2.83c4.62-5.94,13.21-16.99,16.73-21.68,1.38-1.82,1.96-4.09,1.63-6.36-.33-2.28-1.53-4.29-3.39-5.66l-10.51-7.78c-1.46-1.1-3.23-1.69-5.1-1.69-2.67,0-5.14,1.21-6.78,3.33l-40.21,51.97V8.57c0-4.73-3.84-8.57-8.57-8.57h0Z"/>
</svg>